<mxfile host="app.diagrams.net" modified="2023-09-16T21:14:12.229Z" agent="Mozilla/5.0 (Macintosh; Intel Mac OS X 10.15; rv:109.0) Gecko/20100101 Firefox/117.0" etag="EtXEOgk7GjBpOweTcjaw" version="21.7.5" type="github">
  <diagram name="PÃ¡gina-1" id="JxxglBUcX3HhkxNrGy1D">
    <mxGraphModel dx="954" dy="617" grid="1" gridSize="10" guides="1" tooltips="1" connect="1" arrows="1" fold="1" page="1" pageScale="1" pageWidth="827" pageHeight="1169" math="0" shadow="0">
      <root>
        <mxCell id="0" />
        <mxCell id="1" parent="0" />
        <mxCell id="uoPQr9zp4obJrhjYn7je-1" value="" style="rounded=1;whiteSpace=wrap;html=1;dashed=1;fillColor=none;" vertex="1" parent="1">
          <mxGeometry x="40" y="310" width="660" height="160" as="geometry" />
        </mxCell>
        <mxCell id="uoPQr9zp4obJrhjYn7je-2" value="pertenece" style="rhombus;whiteSpace=wrap;html=1;" vertex="1" parent="1">
          <mxGeometry x="330" y="350" width="100" height="80" as="geometry" />
        </mxCell>
        <mxCell id="uoPQr9zp4obJrhjYn7je-3" style="edgeStyle=none;rounded=0;orthogonalLoop=1;jettySize=auto;html=1;exitX=1;exitY=0.5;exitDx=0;exitDy=0;entryX=0;entryY=0.5;entryDx=0;entryDy=0;endArrow=none;endFill=0;" edge="1" parent="1" source="uoPQr9zp4obJrhjYn7je-4" target="uoPQr9zp4obJrhjYn7je-2">
          <mxGeometry relative="1" as="geometry" />
        </mxCell>
        <mxCell id="uoPQr9zp4obJrhjYn7je-4" value="Animal" style="rounded=1;whiteSpace=wrap;html=1;" vertex="1" parent="1">
          <mxGeometry x="160" y="360" width="120" height="60" as="geometry" />
        </mxCell>
        <mxCell id="uoPQr9zp4obJrhjYn7je-5" style="edgeStyle=none;rounded=0;orthogonalLoop=1;jettySize=auto;html=1;exitX=0;exitY=0.5;exitDx=0;exitDy=0;entryX=1;entryY=0.5;entryDx=0;entryDy=0;endArrow=none;endFill=0;" edge="1" parent="1" source="uoPQr9zp4obJrhjYn7je-6" target="uoPQr9zp4obJrhjYn7je-2">
          <mxGeometry relative="1" as="geometry" />
        </mxCell>
        <mxCell id="uoPQr9zp4obJrhjYn7je-6" value="Especie" style="rounded=1;whiteSpace=wrap;html=1;" vertex="1" parent="1">
          <mxGeometry x="480" y="360" width="120" height="60" as="geometry" />
        </mxCell>
        <mxCell id="uoPQr9zp4obJrhjYn7je-7" value="N:1" style="text;html=1;align=center;verticalAlign=middle;resizable=0;points=[];autosize=1;strokeColor=none;fillColor=none;" vertex="1" parent="1">
          <mxGeometry x="360" y="320" width="40" height="30" as="geometry" />
        </mxCell>
        <mxCell id="uoPQr9zp4obJrhjYn7je-8" value="1" style="text;html=1;align=center;verticalAlign=middle;resizable=0;points=[];autosize=1;strokeColor=none;fillColor=none;" vertex="1" parent="1">
          <mxGeometry x="280" y="360" width="30" height="30" as="geometry" />
        </mxCell>
        <mxCell id="uoPQr9zp4obJrhjYn7je-9" value="N" style="text;html=1;align=center;verticalAlign=middle;resizable=0;points=[];autosize=1;strokeColor=none;fillColor=none;" vertex="1" parent="1">
          <mxGeometry x="280" y="390" width="30" height="30" as="geometry" />
        </mxCell>
        <mxCell id="uoPQr9zp4obJrhjYn7je-10" value="1" style="text;html=1;align=center;verticalAlign=middle;resizable=0;points=[];autosize=1;strokeColor=none;fillColor=none;" vertex="1" parent="1">
          <mxGeometry x="450" y="360" width="30" height="30" as="geometry" />
        </mxCell>
        <mxCell id="uoPQr9zp4obJrhjYn7je-11" value="1" style="text;html=1;align=center;verticalAlign=middle;resizable=0;points=[];autosize=1;strokeColor=none;fillColor=none;" vertex="1" parent="1">
          <mxGeometry x="450" y="390" width="30" height="30" as="geometry" />
        </mxCell>
        <mxCell id="uoPQr9zp4obJrhjYn7je-12" style="edgeStyle=orthogonalEdgeStyle;rounded=0;orthogonalLoop=1;jettySize=auto;html=1;entryX=0.5;entryY=0;entryDx=0;entryDy=0;endArrow=none;endFill=0;" edge="1" parent="1" source="uoPQr9zp4obJrhjYn7je-13">
          <mxGeometry relative="1" as="geometry">
            <mxPoint x="260" y="310" as="targetPoint" />
          </mxGeometry>
        </mxCell>
        <mxCell id="uoPQr9zp4obJrhjYn7je-13" value="cuida" style="rhombus;whiteSpace=wrap;html=1;" vertex="1" parent="1">
          <mxGeometry x="210" y="190" width="100" height="80" as="geometry" />
        </mxCell>
        <mxCell id="uoPQr9zp4obJrhjYn7je-14" style="edgeStyle=orthogonalEdgeStyle;rounded=0;orthogonalLoop=1;jettySize=auto;html=1;entryX=0.5;entryY=0;entryDx=0;entryDy=0;endArrow=none;endFill=0;" edge="1" parent="1" source="uoPQr9zp4obJrhjYn7je-15" target="uoPQr9zp4obJrhjYn7je-13">
          <mxGeometry relative="1" as="geometry" />
        </mxCell>
        <mxCell id="uoPQr9zp4obJrhjYn7je-15" value="Cuidador" style="rounded=1;whiteSpace=wrap;html=1;" vertex="1" parent="1">
          <mxGeometry x="200" y="90" width="120" height="60" as="geometry" />
        </mxCell>
        <mxCell id="uoPQr9zp4obJrhjYn7je-16" value="&lt;div&gt;N&lt;br&gt;&lt;/div&gt;&lt;div&gt;:&lt;/div&gt;&lt;div&gt;M&lt;br&gt;&lt;/div&gt;" style="text;html=1;align=center;verticalAlign=middle;resizable=0;points=[];autosize=1;strokeColor=none;fillColor=none;" vertex="1" parent="1">
          <mxGeometry x="310" y="200" width="30" height="60" as="geometry" />
        </mxCell>
        <mxCell id="uoPQr9zp4obJrhjYn7je-17" value="N" style="text;html=1;align=center;verticalAlign=middle;resizable=0;points=[];autosize=1;strokeColor=none;fillColor=none;" vertex="1" parent="1">
          <mxGeometry x="260" y="150" width="30" height="30" as="geometry" />
        </mxCell>
        <mxCell id="uoPQr9zp4obJrhjYn7je-18" value="1" style="text;html=1;align=center;verticalAlign=middle;resizable=0;points=[];autosize=1;strokeColor=none;fillColor=none;" vertex="1" parent="1">
          <mxGeometry x="230" y="150" width="30" height="30" as="geometry" />
        </mxCell>
        <mxCell id="uoPQr9zp4obJrhjYn7je-19" value="1" style="text;html=1;align=center;verticalAlign=middle;resizable=0;points=[];autosize=1;strokeColor=none;fillColor=none;" vertex="1" parent="1">
          <mxGeometry x="260" y="280" width="30" height="30" as="geometry" />
        </mxCell>
        <mxCell id="uoPQr9zp4obJrhjYn7je-20" value="N" style="text;html=1;align=center;verticalAlign=middle;resizable=0;points=[];autosize=1;strokeColor=none;fillColor=none;" vertex="1" parent="1">
          <mxGeometry x="230" y="280" width="30" height="30" as="geometry" />
        </mxCell>
        <mxCell id="uoPQr9zp4obJrhjYn7je-21" style="edgeStyle=orthogonalEdgeStyle;rounded=0;orthogonalLoop=1;jettySize=auto;html=1;entryX=0.5;entryY=0;entryDx=0;entryDy=0;endArrow=none;endFill=0;" edge="1" source="uoPQr9zp4obJrhjYn7je-22" parent="1">
          <mxGeometry relative="1" as="geometry">
            <mxPoint x="500" y="310" as="targetPoint" />
          </mxGeometry>
        </mxCell>
        <mxCell id="uoPQr9zp4obJrhjYn7je-22" value="visita" style="rhombus;whiteSpace=wrap;html=1;" vertex="1" parent="1">
          <mxGeometry x="450" y="190" width="100" height="80" as="geometry" />
        </mxCell>
        <mxCell id="uoPQr9zp4obJrhjYn7je-23" style="edgeStyle=orthogonalEdgeStyle;rounded=0;orthogonalLoop=1;jettySize=auto;html=1;entryX=0.5;entryY=0;entryDx=0;entryDy=0;endArrow=none;endFill=0;" edge="1" source="uoPQr9zp4obJrhjYn7je-24" target="uoPQr9zp4obJrhjYn7je-22" parent="1">
          <mxGeometry relative="1" as="geometry" />
        </mxCell>
        <mxCell id="uoPQr9zp4obJrhjYn7je-24" value="Visitante" style="rounded=1;whiteSpace=wrap;html=1;" vertex="1" parent="1">
          <mxGeometry x="440" y="90" width="120" height="60" as="geometry" />
        </mxCell>
        <mxCell id="uoPQr9zp4obJrhjYn7je-25" value="&lt;div&gt;N&lt;/div&gt;&lt;div&gt;:&lt;/div&gt;&lt;div&gt;M&lt;br&gt;&lt;/div&gt;" style="text;html=1;align=center;verticalAlign=middle;resizable=0;points=[];autosize=1;strokeColor=none;fillColor=none;" vertex="1" parent="1">
          <mxGeometry x="550" y="200" width="30" height="60" as="geometry" />
        </mxCell>
        <mxCell id="uoPQr9zp4obJrhjYn7je-26" value="N" style="text;html=1;align=center;verticalAlign=middle;resizable=0;points=[];autosize=1;strokeColor=none;fillColor=none;" vertex="1" parent="1">
          <mxGeometry x="500" y="150" width="30" height="30" as="geometry" />
        </mxCell>
        <mxCell id="uoPQr9zp4obJrhjYn7je-27" value="1" style="text;html=1;align=center;verticalAlign=middle;resizable=0;points=[];autosize=1;strokeColor=none;fillColor=none;" vertex="1" parent="1">
          <mxGeometry x="470" y="150" width="30" height="30" as="geometry" />
        </mxCell>
        <mxCell id="uoPQr9zp4obJrhjYn7je-28" value="1" style="text;html=1;align=center;verticalAlign=middle;resizable=0;points=[];autosize=1;strokeColor=none;fillColor=none;" vertex="1" parent="1">
          <mxGeometry x="500" y="280" width="30" height="30" as="geometry" />
        </mxCell>
        <mxCell id="uoPQr9zp4obJrhjYn7je-29" value="N" style="text;html=1;align=center;verticalAlign=middle;resizable=0;points=[];autosize=1;strokeColor=none;fillColor=none;" vertex="1" parent="1">
          <mxGeometry x="470" y="280" width="30" height="30" as="geometry" />
        </mxCell>
        <mxCell id="uoPQr9zp4obJrhjYn7je-39" style="edgeStyle=orthogonalEdgeStyle;rounded=0;orthogonalLoop=1;jettySize=auto;html=1;entryX=0.5;entryY=0;entryDx=0;entryDy=0;endArrow=none;endFill=0;" edge="1" parent="1" source="uoPQr9zp4obJrhjYn7je-40" target="uoPQr9zp4obJrhjYn7je-42">
          <mxGeometry relative="1" as="geometry" />
        </mxCell>
        <mxCell id="uoPQr9zp4obJrhjYn7je-40" value="se encuentra" style="rhombus;whiteSpace=wrap;html=1;" vertex="1" parent="1">
          <mxGeometry x="210" y="510" width="100" height="80" as="geometry" />
        </mxCell>
        <mxCell id="uoPQr9zp4obJrhjYn7je-41" style="edgeStyle=orthogonalEdgeStyle;rounded=0;orthogonalLoop=1;jettySize=auto;html=1;entryX=0.5;entryY=0;entryDx=0;entryDy=0;endArrow=none;endFill=0;" edge="1" parent="1" target="uoPQr9zp4obJrhjYn7je-40">
          <mxGeometry relative="1" as="geometry">
            <mxPoint x="260" y="470" as="sourcePoint" />
          </mxGeometry>
        </mxCell>
        <mxCell id="uoPQr9zp4obJrhjYn7je-42" value="Zona" style="rounded=1;whiteSpace=wrap;html=1;" vertex="1" parent="1">
          <mxGeometry x="200" y="630" width="120" height="60" as="geometry" />
        </mxCell>
        <mxCell id="uoPQr9zp4obJrhjYn7je-43" value="&lt;div&gt;N&lt;/div&gt;&lt;div&gt;:&lt;/div&gt;&lt;div&gt;1&lt;br&gt;&lt;/div&gt;" style="text;html=1;align=center;verticalAlign=middle;resizable=0;points=[];autosize=1;strokeColor=none;fillColor=none;" vertex="1" parent="1">
          <mxGeometry x="310" y="520" width="30" height="60" as="geometry" />
        </mxCell>
        <mxCell id="uoPQr9zp4obJrhjYn7je-44" value="N" style="text;html=1;align=center;verticalAlign=middle;resizable=0;points=[];autosize=1;strokeColor=none;fillColor=none;" vertex="1" parent="1">
          <mxGeometry x="260" y="470" width="30" height="30" as="geometry" />
        </mxCell>
        <mxCell id="uoPQr9zp4obJrhjYn7je-45" value="1" style="text;html=1;align=center;verticalAlign=middle;resizable=0;points=[];autosize=1;strokeColor=none;fillColor=none;" vertex="1" parent="1">
          <mxGeometry x="230" y="470" width="30" height="30" as="geometry" />
        </mxCell>
        <mxCell id="uoPQr9zp4obJrhjYn7je-46" value="1" style="text;html=1;align=center;verticalAlign=middle;resizable=0;points=[];autosize=1;strokeColor=none;fillColor=none;" vertex="1" parent="1">
          <mxGeometry x="260" y="600" width="30" height="30" as="geometry" />
        </mxCell>
        <mxCell id="uoPQr9zp4obJrhjYn7je-47" value="1" style="text;html=1;align=center;verticalAlign=middle;resizable=0;points=[];autosize=1;strokeColor=none;fillColor=none;" vertex="1" parent="1">
          <mxGeometry x="230" y="600" width="30" height="30" as="geometry" />
        </mxCell>
        <mxCell id="uoPQr9zp4obJrhjYn7je-48" style="edgeStyle=orthogonalEdgeStyle;rounded=0;orthogonalLoop=1;jettySize=auto;html=1;entryX=0.5;entryY=0;entryDx=0;entryDy=0;endArrow=none;endFill=0;" edge="1" source="uoPQr9zp4obJrhjYn7je-49" target="uoPQr9zp4obJrhjYn7je-51" parent="1">
          <mxGeometry relative="1" as="geometry" />
        </mxCell>
        <mxCell id="uoPQr9zp4obJrhjYn7je-49" value="apoya" style="rhombus;whiteSpace=wrap;html=1;" vertex="1" parent="1">
          <mxGeometry x="450" y="510" width="100" height="80" as="geometry" />
        </mxCell>
        <mxCell id="uoPQr9zp4obJrhjYn7je-50" style="edgeStyle=orthogonalEdgeStyle;rounded=0;orthogonalLoop=1;jettySize=auto;html=1;entryX=0.5;entryY=0;entryDx=0;entryDy=0;endArrow=none;endFill=0;" edge="1" target="uoPQr9zp4obJrhjYn7je-49" parent="1">
          <mxGeometry relative="1" as="geometry">
            <mxPoint x="500" y="470" as="sourcePoint" />
          </mxGeometry>
        </mxCell>
        <mxCell id="uoPQr9zp4obJrhjYn7je-51" value="Patrocinador " style="rounded=1;whiteSpace=wrap;html=1;" vertex="1" parent="1">
          <mxGeometry x="440" y="630" width="120" height="60" as="geometry" />
        </mxCell>
        <mxCell id="uoPQr9zp4obJrhjYn7je-52" value="&lt;div&gt;N&lt;br&gt;&lt;/div&gt;&lt;div&gt;:&lt;/div&gt;&lt;div&gt;M&lt;br&gt;&lt;/div&gt;" style="text;html=1;align=center;verticalAlign=middle;resizable=0;points=[];autosize=1;strokeColor=none;fillColor=none;" vertex="1" parent="1">
          <mxGeometry x="550" y="520" width="30" height="60" as="geometry" />
        </mxCell>
        <mxCell id="uoPQr9zp4obJrhjYn7je-53" value="N" style="text;html=1;align=center;verticalAlign=middle;resizable=0;points=[];autosize=1;strokeColor=none;fillColor=none;" vertex="1" parent="1">
          <mxGeometry x="500" y="470" width="30" height="30" as="geometry" />
        </mxCell>
        <mxCell id="uoPQr9zp4obJrhjYn7je-54" value="1" style="text;html=1;align=center;verticalAlign=middle;resizable=0;points=[];autosize=1;strokeColor=none;fillColor=none;" vertex="1" parent="1">
          <mxGeometry x="470" y="470" width="30" height="30" as="geometry" />
        </mxCell>
        <mxCell id="uoPQr9zp4obJrhjYn7je-55" value="1" style="text;html=1;align=center;verticalAlign=middle;resizable=0;points=[];autosize=1;strokeColor=none;fillColor=none;" vertex="1" parent="1">
          <mxGeometry x="500" y="600" width="30" height="30" as="geometry" />
        </mxCell>
        <mxCell id="uoPQr9zp4obJrhjYn7je-56" value="N" style="text;html=1;align=center;verticalAlign=middle;resizable=0;points=[];autosize=1;strokeColor=none;fillColor=none;" vertex="1" parent="1">
          <mxGeometry x="470" y="600" width="30" height="30" as="geometry" />
        </mxCell>
        <mxCell id="uoPQr9zp4obJrhjYn7je-129" style="edgeStyle=orthogonalEdgeStyle;rounded=0;orthogonalLoop=1;jettySize=auto;html=1;entryX=0.099;entryY=0.028;entryDx=0;entryDy=0;entryPerimeter=0;endArrow=none;endFill=0;" edge="1" parent="1" source="uoPQr9zp4obJrhjYn7je-130">
          <mxGeometry relative="1" as="geometry">
            <mxPoint x="212" y="92" as="targetPoint" />
          </mxGeometry>
        </mxCell>
        <mxCell id="uoPQr9zp4obJrhjYn7je-130" value="" style="ellipse;whiteSpace=wrap;html=1;aspect=fixed;" vertex="1" parent="1">
          <mxGeometry x="210" y="60" width="10" height="10" as="geometry" />
        </mxCell>
        <mxCell id="uoPQr9zp4obJrhjYn7je-131" value="especializaciÃ³" style="text;html=1;align=center;verticalAlign=middle;resizable=0;points=[];autosize=1;strokeColor=none;fillColor=none;" vertex="1" parent="1">
          <mxGeometry x="145" y="30" width="100" height="30" as="geometry" />
        </mxCell>
        <mxCell id="uoPQr9zp4obJrhjYn7je-135" value="" style="ellipse;whiteSpace=wrap;html=1;aspect=fixed;" vertex="1" parent="1">
          <mxGeometry x="170" y="90" width="10" height="10" as="geometry" />
        </mxCell>
        <mxCell id="uoPQr9zp4obJrhjYn7je-136" style="edgeStyle=orthogonalEdgeStyle;rounded=0;orthogonalLoop=1;jettySize=auto;html=1;entryX=-0.008;entryY=0.419;entryDx=0;entryDy=0;entryPerimeter=0;endArrow=none;endFill=0;" edge="1" parent="1" source="uoPQr9zp4obJrhjYn7je-137">
          <mxGeometry relative="1" as="geometry">
            <mxPoint x="199" y="115" as="targetPoint" />
          </mxGeometry>
        </mxCell>
        <mxCell id="uoPQr9zp4obJrhjYn7je-137" value="" style="ellipse;whiteSpace=wrap;html=1;aspect=fixed;" vertex="1" parent="1">
          <mxGeometry x="170" y="110" width="10" height="10" as="geometry" />
        </mxCell>
        <mxCell id="uoPQr9zp4obJrhjYn7je-138" style="edgeStyle=orthogonalEdgeStyle;rounded=0;orthogonalLoop=1;jettySize=auto;html=1;entryX=0;entryY=0.75;entryDx=0;entryDy=0;endArrow=none;endFill=0;" edge="1" parent="1" source="uoPQr9zp4obJrhjYn7je-139">
          <mxGeometry relative="1" as="geometry">
            <mxPoint x="200" y="135" as="targetPoint" />
          </mxGeometry>
        </mxCell>
        <mxCell id="uoPQr9zp4obJrhjYn7je-139" value="" style="ellipse;whiteSpace=wrap;html=1;aspect=fixed;fontStyle=0;fillColor=#000000;" vertex="1" parent="1">
          <mxGeometry x="170" y="130" width="10" height="10" as="geometry" />
        </mxCell>
        <mxCell id="uoPQr9zp4obJrhjYn7je-140" value="experiencia" style="text;html=1;align=center;verticalAlign=middle;resizable=0;points=[];autosize=1;strokeColor=none;fillColor=none;" vertex="1" parent="1">
          <mxGeometry x="95" y="80" width="80" height="30" as="geometry" />
        </mxCell>
        <mxCell id="uoPQr9zp4obJrhjYn7je-141" value="nom_cuid" style="text;html=1;align=center;verticalAlign=middle;resizable=0;points=[];autosize=1;strokeColor=none;fillColor=none;" vertex="1" parent="1">
          <mxGeometry x="95" y="100" width="80" height="30" as="geometry" />
        </mxCell>
        <mxCell id="uoPQr9zp4obJrhjYn7je-142" value="id_cuid" style="text;html=1;align=center;verticalAlign=middle;resizable=0;points=[];autosize=1;strokeColor=none;fillColor=none;" vertex="1" parent="1">
          <mxGeometry x="105" y="120" width="60" height="30" as="geometry" />
        </mxCell>
        <mxCell id="uoPQr9zp4obJrhjYn7je-143" style="edgeStyle=orthogonalEdgeStyle;rounded=0;orthogonalLoop=1;jettySize=auto;html=1;exitX=0;exitY=0.5;exitDx=0;exitDy=0;entryX=1;entryY=0.085;entryDx=0;entryDy=0;entryPerimeter=0;endArrow=none;endFill=0;" edge="1" parent="1">
          <mxGeometry relative="1" as="geometry">
            <mxPoint x="200" y="95" as="sourcePoint" />
            <mxPoint x="180" y="95" as="targetPoint" />
          </mxGeometry>
        </mxCell>
        <mxCell id="uoPQr9zp4obJrhjYn7je-146" value="" style="ellipse;whiteSpace=wrap;html=1;aspect=fixed;" vertex="1" parent="1">
          <mxGeometry x="410" y="90" width="10" height="10" as="geometry" />
        </mxCell>
        <mxCell id="uoPQr9zp4obJrhjYn7je-147" style="edgeStyle=orthogonalEdgeStyle;rounded=0;orthogonalLoop=1;jettySize=auto;html=1;entryX=-0.008;entryY=0.419;entryDx=0;entryDy=0;entryPerimeter=0;endArrow=none;endFill=0;" edge="1" source="uoPQr9zp4obJrhjYn7je-148" parent="1">
          <mxGeometry relative="1" as="geometry">
            <mxPoint x="439" y="115" as="targetPoint" />
          </mxGeometry>
        </mxCell>
        <mxCell id="uoPQr9zp4obJrhjYn7je-148" value="" style="ellipse;whiteSpace=wrap;html=1;aspect=fixed;" vertex="1" parent="1">
          <mxGeometry x="410" y="110" width="10" height="10" as="geometry" />
        </mxCell>
        <mxCell id="uoPQr9zp4obJrhjYn7je-149" style="edgeStyle=orthogonalEdgeStyle;rounded=0;orthogonalLoop=1;jettySize=auto;html=1;entryX=0;entryY=0.75;entryDx=0;entryDy=0;endArrow=none;endFill=0;" edge="1" source="uoPQr9zp4obJrhjYn7je-150" parent="1">
          <mxGeometry relative="1" as="geometry">
            <mxPoint x="440" y="135" as="targetPoint" />
          </mxGeometry>
        </mxCell>
        <mxCell id="uoPQr9zp4obJrhjYn7je-150" value="" style="ellipse;whiteSpace=wrap;html=1;aspect=fixed;fontStyle=0;fillColor=#000000;" vertex="1" parent="1">
          <mxGeometry x="410" y="130" width="10" height="10" as="geometry" />
        </mxCell>
        <mxCell id="uoPQr9zp4obJrhjYn7je-151" value="edad" style="text;html=1;align=center;verticalAlign=middle;resizable=0;points=[];autosize=1;strokeColor=none;fillColor=none;" vertex="1" parent="1">
          <mxGeometry x="350" y="80" width="50" height="30" as="geometry" />
        </mxCell>
        <mxCell id="uoPQr9zp4obJrhjYn7je-152" value="nom_vis" style="text;html=1;align=center;verticalAlign=middle;resizable=0;points=[];autosize=1;strokeColor=none;fillColor=none;" vertex="1" parent="1">
          <mxGeometry x="340" y="100" width="70" height="30" as="geometry" />
        </mxCell>
        <mxCell id="uoPQr9zp4obJrhjYn7je-153" value="id_vis" style="text;html=1;align=center;verticalAlign=middle;resizable=0;points=[];autosize=1;strokeColor=none;fillColor=none;" vertex="1" parent="1">
          <mxGeometry x="350" y="120" width="50" height="30" as="geometry" />
        </mxCell>
        <mxCell id="uoPQr9zp4obJrhjYn7je-154" style="edgeStyle=orthogonalEdgeStyle;rounded=0;orthogonalLoop=1;jettySize=auto;html=1;exitX=0;exitY=0.5;exitDx=0;exitDy=0;entryX=1;entryY=0.085;entryDx=0;entryDy=0;entryPerimeter=0;endArrow=none;endFill=0;" edge="1" parent="1">
          <mxGeometry relative="1" as="geometry">
            <mxPoint x="440" y="95" as="sourcePoint" />
            <mxPoint x="420" y="95" as="targetPoint" />
          </mxGeometry>
        </mxCell>
        <mxCell id="uoPQr9zp4obJrhjYn7je-164" style="rounded=0;orthogonalLoop=1;jettySize=auto;html=1;exitX=0;exitY=1;exitDx=0;exitDy=0;entryX=1;entryY=0;entryDx=0;entryDy=0;endArrow=none;endFill=0;" edge="1" source="uoPQr9zp4obJrhjYn7je-165" parent="1">
          <mxGeometry relative="1" as="geometry">
            <mxPoint x="530" y="215" as="targetPoint" />
          </mxGeometry>
        </mxCell>
        <mxCell id="uoPQr9zp4obJrhjYn7je-165" value="" style="ellipse;whiteSpace=wrap;html=1;aspect=fixed;" vertex="1" parent="1">
          <mxGeometry x="535" y="195" width="10" height="10" as="geometry" />
        </mxCell>
        <mxCell id="uoPQr9zp4obJrhjYn7je-166" value="hora" style="text;html=1;align=center;verticalAlign=middle;resizable=0;points=[];autosize=1;strokeColor=none;fillColor=none;" vertex="1" parent="1">
          <mxGeometry x="545" y="175" width="50" height="30" as="geometry" />
        </mxCell>
        <mxCell id="uoPQr9zp4obJrhjYn7je-167" value="" style="ellipse;whiteSpace=wrap;html=1;aspect=fixed;" vertex="1" parent="1">
          <mxGeometry x="222.6199999999999" y="190" width="10" height="10" as="geometry" />
        </mxCell>
        <mxCell id="uoPQr9zp4obJrhjYn7je-168" value="fecha" style="text;html=1;align=center;verticalAlign=middle;resizable=0;points=[];autosize=1;strokeColor=none;fillColor=none;" vertex="1" parent="1">
          <mxGeometry x="162.6199999999999" y="180" width="50" height="30" as="geometry" />
        </mxCell>
        <mxCell id="uoPQr9zp4obJrhjYn7je-169" style="rounded=0;orthogonalLoop=1;jettySize=auto;html=1;entryX=1;entryY=1;entryDx=0;entryDy=0;endArrow=none;endFill=0;" edge="1" parent="1">
          <mxGeometry relative="1" as="geometry">
            <mxPoint x="237.38999999999987" y="210.15999999999997" as="sourcePoint" />
            <mxPoint x="230.38999999999987" y="199.15999999999997" as="targetPoint" />
          </mxGeometry>
        </mxCell>
        <mxCell id="uoPQr9zp4obJrhjYn7je-170" style="rounded=0;orthogonalLoop=1;jettySize=auto;html=1;exitX=0;exitY=1;exitDx=0;exitDy=0;entryX=1;entryY=0;entryDx=0;entryDy=0;endArrow=none;endFill=0;" edge="1" source="uoPQr9zp4obJrhjYn7je-171" parent="1">
          <mxGeometry relative="1" as="geometry">
            <mxPoint x="290" y="215" as="targetPoint" />
          </mxGeometry>
        </mxCell>
        <mxCell id="uoPQr9zp4obJrhjYn7je-171" value="" style="ellipse;whiteSpace=wrap;html=1;aspect=fixed;" vertex="1" parent="1">
          <mxGeometry x="295" y="195" width="10" height="10" as="geometry" />
        </mxCell>
        <mxCell id="uoPQr9zp4obJrhjYn7je-172" value="hora" style="text;html=1;align=center;verticalAlign=middle;resizable=0;points=[];autosize=1;strokeColor=none;fillColor=none;" vertex="1" parent="1">
          <mxGeometry x="305" y="175" width="50" height="30" as="geometry" />
        </mxCell>
        <mxCell id="uoPQr9zp4obJrhjYn7je-173" value="" style="ellipse;whiteSpace=wrap;html=1;aspect=fixed;" vertex="1" parent="1">
          <mxGeometry x="459.9999999999999" y="189.84" width="10" height="10" as="geometry" />
        </mxCell>
        <mxCell id="uoPQr9zp4obJrhjYn7je-174" value="fecha" style="text;html=1;align=center;verticalAlign=middle;resizable=0;points=[];autosize=1;strokeColor=none;fillColor=none;" vertex="1" parent="1">
          <mxGeometry x="399.9999999999999" y="179.84" width="50" height="30" as="geometry" />
        </mxCell>
        <mxCell id="uoPQr9zp4obJrhjYn7je-175" style="rounded=0;orthogonalLoop=1;jettySize=auto;html=1;entryX=1;entryY=1;entryDx=0;entryDy=0;endArrow=none;endFill=0;" edge="1" parent="1">
          <mxGeometry relative="1" as="geometry">
            <mxPoint x="474.76999999999987" y="209.99999999999997" as="sourcePoint" />
            <mxPoint x="467.76999999999987" y="198.99999999999997" as="targetPoint" />
          </mxGeometry>
        </mxCell>
        <mxCell id="uoPQr9zp4obJrhjYn7je-176" style="edgeStyle=orthogonalEdgeStyle;rounded=0;orthogonalLoop=1;jettySize=auto;html=1;entryX=0.099;entryY=0.028;entryDx=0;entryDy=0;entryPerimeter=0;endArrow=none;endFill=0;" edge="1" source="uoPQr9zp4obJrhjYn7je-177" parent="1">
          <mxGeometry relative="1" as="geometry">
            <mxPoint x="172" y="362" as="targetPoint" />
          </mxGeometry>
        </mxCell>
        <mxCell id="uoPQr9zp4obJrhjYn7je-177" value="" style="ellipse;whiteSpace=wrap;html=1;aspect=fixed;fillColor=#000;" vertex="1" parent="1">
          <mxGeometry x="170" y="330" width="10" height="10" as="geometry" />
        </mxCell>
        <mxCell id="uoPQr9zp4obJrhjYn7je-178" value="id_animal" style="text;html=1;align=center;verticalAlign=middle;resizable=0;points=[];autosize=1;strokeColor=none;fillColor=none;" vertex="1" parent="1">
          <mxGeometry x="105" y="310" width="70" height="30" as="geometry" />
        </mxCell>
        <mxCell id="uoPQr9zp4obJrhjYn7je-179" style="edgeStyle=orthogonalEdgeStyle;rounded=0;orthogonalLoop=1;jettySize=auto;html=1;entryX=0.125;entryY=1;entryDx=0;entryDy=0;entryPerimeter=0;endArrow=none;endFill=0;" edge="1" source="uoPQr9zp4obJrhjYn7je-180" parent="1">
          <mxGeometry relative="1" as="geometry">
            <mxPoint x="175" y="420" as="targetPoint" />
          </mxGeometry>
        </mxCell>
        <mxCell id="uoPQr9zp4obJrhjYn7je-180" value="" style="ellipse;whiteSpace=wrap;html=1;aspect=fixed;" vertex="1" parent="1">
          <mxGeometry x="170" y="440" width="10" height="10" as="geometry" />
        </mxCell>
        <mxCell id="uoPQr9zp4obJrhjYn7je-181" value="rutina_cuidado" style="text;html=1;align=center;verticalAlign=middle;resizable=0;points=[];autosize=1;strokeColor=none;fillColor=none;" vertex="1" parent="1">
          <mxGeometry x="85" y="440" width="100" height="30" as="geometry" />
        </mxCell>
        <mxCell id="uoPQr9zp4obJrhjYn7je-182" value="" style="ellipse;whiteSpace=wrap;html=1;aspect=fixed;" vertex="1" parent="1">
          <mxGeometry x="130" y="360" width="10" height="10" as="geometry" />
        </mxCell>
        <mxCell id="uoPQr9zp4obJrhjYn7je-183" style="edgeStyle=orthogonalEdgeStyle;rounded=0;orthogonalLoop=1;jettySize=auto;html=1;entryX=-0.008;entryY=0.419;entryDx=0;entryDy=0;entryPerimeter=0;endArrow=none;endFill=0;" edge="1" source="uoPQr9zp4obJrhjYn7je-184" parent="1">
          <mxGeometry relative="1" as="geometry">
            <mxPoint x="159" y="385" as="targetPoint" />
          </mxGeometry>
        </mxCell>
        <mxCell id="uoPQr9zp4obJrhjYn7je-184" value="" style="ellipse;whiteSpace=wrap;html=1;aspect=fixed;" vertex="1" parent="1">
          <mxGeometry x="130" y="380" width="10" height="10" as="geometry" />
        </mxCell>
        <mxCell id="uoPQr9zp4obJrhjYn7je-185" style="edgeStyle=orthogonalEdgeStyle;rounded=0;orthogonalLoop=1;jettySize=auto;html=1;entryX=0;entryY=0.75;entryDx=0;entryDy=0;endArrow=none;endFill=0;" edge="1" source="uoPQr9zp4obJrhjYn7je-186" parent="1">
          <mxGeometry relative="1" as="geometry">
            <mxPoint x="160" y="405" as="targetPoint" />
          </mxGeometry>
        </mxCell>
        <mxCell id="uoPQr9zp4obJrhjYn7je-186" value="" style="ellipse;whiteSpace=wrap;html=1;aspect=fixed;" vertex="1" parent="1">
          <mxGeometry x="130" y="400" width="10" height="10" as="geometry" />
        </mxCell>
        <mxCell id="uoPQr9zp4obJrhjYn7je-187" value="nom_animal" style="text;html=1;align=center;verticalAlign=middle;resizable=0;points=[];autosize=1;strokeColor=none;fillColor=none;" vertex="1" parent="1">
          <mxGeometry x="50" y="350" width="90" height="30" as="geometry" />
        </mxCell>
        <mxCell id="uoPQr9zp4obJrhjYn7je-188" value="edad" style="text;html=1;align=center;verticalAlign=middle;resizable=0;points=[];autosize=1;strokeColor=none;fillColor=none;" vertex="1" parent="1">
          <mxGeometry x="70" y="370" width="50" height="30" as="geometry" />
        </mxCell>
        <mxCell id="uoPQr9zp4obJrhjYn7je-189" value="dieta" style="text;html=1;align=center;verticalAlign=middle;resizable=0;points=[];autosize=1;strokeColor=none;fillColor=none;" vertex="1" parent="1">
          <mxGeometry x="70" y="390" width="50" height="30" as="geometry" />
        </mxCell>
        <mxCell id="uoPQr9zp4obJrhjYn7je-190" style="edgeStyle=orthogonalEdgeStyle;rounded=0;orthogonalLoop=1;jettySize=auto;html=1;exitX=0;exitY=0.5;exitDx=0;exitDy=0;entryX=1;entryY=0.085;entryDx=0;entryDy=0;entryPerimeter=0;endArrow=none;endFill=0;" edge="1" parent="1">
          <mxGeometry relative="1" as="geometry">
            <mxPoint x="160" y="365" as="sourcePoint" />
            <mxPoint x="140" y="365" as="targetPoint" />
          </mxGeometry>
        </mxCell>
        <mxCell id="uoPQr9zp4obJrhjYn7je-191" value="" style="ellipse;whiteSpace=wrap;html=1;aspect=fixed;" vertex="1" parent="1">
          <mxGeometry x="170" y="635" width="10" height="10" as="geometry" />
        </mxCell>
        <mxCell id="uoPQr9zp4obJrhjYn7je-192" style="edgeStyle=orthogonalEdgeStyle;rounded=0;orthogonalLoop=1;jettySize=auto;html=1;entryX=-0.008;entryY=0.419;entryDx=0;entryDy=0;entryPerimeter=0;endArrow=none;endFill=0;" edge="1" source="uoPQr9zp4obJrhjYn7je-193" parent="1">
          <mxGeometry relative="1" as="geometry">
            <mxPoint x="199" y="660" as="targetPoint" />
          </mxGeometry>
        </mxCell>
        <mxCell id="uoPQr9zp4obJrhjYn7je-193" value="" style="ellipse;whiteSpace=wrap;html=1;aspect=fixed;" vertex="1" parent="1">
          <mxGeometry x="170" y="655" width="10" height="10" as="geometry" />
        </mxCell>
        <mxCell id="uoPQr9zp4obJrhjYn7je-194" style="edgeStyle=orthogonalEdgeStyle;rounded=0;orthogonalLoop=1;jettySize=auto;html=1;entryX=0;entryY=0.75;entryDx=0;entryDy=0;endArrow=none;endFill=0;" edge="1" source="uoPQr9zp4obJrhjYn7je-195" parent="1">
          <mxGeometry relative="1" as="geometry">
            <mxPoint x="200" y="680" as="targetPoint" />
          </mxGeometry>
        </mxCell>
        <mxCell id="uoPQr9zp4obJrhjYn7je-195" value="" style="ellipse;whiteSpace=wrap;html=1;aspect=fixed;fontStyle=0;fillColor=#000000;" vertex="1" parent="1">
          <mxGeometry x="170" y="675" width="10" height="10" as="geometry" />
        </mxCell>
        <mxCell id="uoPQr9zp4obJrhjYn7je-196" value="tipo_habitad" style="text;html=1;align=center;verticalAlign=middle;resizable=0;points=[];autosize=1;strokeColor=none;fillColor=none;" vertex="1" parent="1">
          <mxGeometry x="90" y="625" width="90" height="30" as="geometry" />
        </mxCell>
        <mxCell id="uoPQr9zp4obJrhjYn7je-197" value="ubicacion" style="text;html=1;align=center;verticalAlign=middle;resizable=0;points=[];autosize=1;strokeColor=none;fillColor=none;" vertex="1" parent="1">
          <mxGeometry x="100" y="645" width="70" height="30" as="geometry" />
        </mxCell>
        <mxCell id="uoPQr9zp4obJrhjYn7je-198" value="id_zona" style="text;html=1;align=center;verticalAlign=middle;resizable=0;points=[];autosize=1;strokeColor=none;fillColor=none;" vertex="1" parent="1">
          <mxGeometry x="100" y="665" width="70" height="30" as="geometry" />
        </mxCell>
        <mxCell id="uoPQr9zp4obJrhjYn7je-199" style="edgeStyle=orthogonalEdgeStyle;rounded=0;orthogonalLoop=1;jettySize=auto;html=1;exitX=0;exitY=0.5;exitDx=0;exitDy=0;entryX=1;entryY=0.085;entryDx=0;entryDy=0;entryPerimeter=0;endArrow=none;endFill=0;" edge="1" parent="1">
          <mxGeometry relative="1" as="geometry">
            <mxPoint x="200" y="640" as="sourcePoint" />
            <mxPoint x="180" y="640" as="targetPoint" />
          </mxGeometry>
        </mxCell>
        <mxCell id="uoPQr9zp4obJrhjYn7je-200" style="edgeStyle=orthogonalEdgeStyle;rounded=0;orthogonalLoop=1;jettySize=auto;html=1;entryX=0.125;entryY=1;entryDx=0;entryDy=0;entryPerimeter=0;endArrow=none;endFill=0;" edge="1" source="uoPQr9zp4obJrhjYn7je-201" parent="1">
          <mxGeometry relative="1" as="geometry">
            <mxPoint x="220" y="690" as="targetPoint" />
          </mxGeometry>
        </mxCell>
        <mxCell id="uoPQr9zp4obJrhjYn7je-201" value="" style="ellipse;whiteSpace=wrap;html=1;aspect=fixed;" vertex="1" parent="1">
          <mxGeometry x="215" y="710" width="10" height="10" as="geometry" />
        </mxCell>
        <mxCell id="uoPQr9zp4obJrhjYn7je-202" value="capacidad" style="text;html=1;align=center;verticalAlign=middle;resizable=0;points=[];autosize=1;strokeColor=none;fillColor=none;" vertex="1" parent="1">
          <mxGeometry x="140" y="710" width="80" height="30" as="geometry" />
        </mxCell>
        <mxCell id="uoPQr9zp4obJrhjYn7je-203" style="rounded=0;orthogonalLoop=1;jettySize=auto;html=1;exitX=0;exitY=1;exitDx=0;exitDy=0;entryX=1;entryY=0;entryDx=0;entryDy=0;endArrow=none;endFill=0;" edge="1" source="uoPQr9zp4obJrhjYn7je-204" parent="1">
          <mxGeometry relative="1" as="geometry">
            <mxPoint x="530" y="530" as="targetPoint" />
          </mxGeometry>
        </mxCell>
        <mxCell id="uoPQr9zp4obJrhjYn7je-204" value="" style="ellipse;whiteSpace=wrap;html=1;aspect=fixed;" vertex="1" parent="1">
          <mxGeometry x="535" y="510" width="10" height="10" as="geometry" />
        </mxCell>
        <mxCell id="uoPQr9zp4obJrhjYn7je-205" value="donacion" style="text;html=1;align=center;verticalAlign=middle;resizable=0;points=[];autosize=1;strokeColor=none;fillColor=none;" vertex="1" parent="1">
          <mxGeometry x="535" y="490" width="70" height="30" as="geometry" />
        </mxCell>
        <mxCell id="uoPQr9zp4obJrhjYn7je-206" value="" style="ellipse;whiteSpace=wrap;html=1;aspect=fixed;" vertex="1" parent="1">
          <mxGeometry x="459.9999999999999" y="504.84000000000003" width="10" height="10" as="geometry" />
        </mxCell>
        <mxCell id="uoPQr9zp4obJrhjYn7je-207" value="fecha" style="text;html=1;align=center;verticalAlign=middle;resizable=0;points=[];autosize=1;strokeColor=none;fillColor=none;" vertex="1" parent="1">
          <mxGeometry x="399.9999999999999" y="494.84000000000003" width="50" height="30" as="geometry" />
        </mxCell>
        <mxCell id="uoPQr9zp4obJrhjYn7je-208" style="rounded=0;orthogonalLoop=1;jettySize=auto;html=1;entryX=1;entryY=1;entryDx=0;entryDy=0;endArrow=none;endFill=0;" edge="1" parent="1">
          <mxGeometry relative="1" as="geometry">
            <mxPoint x="474.76999999999987" y="525" as="sourcePoint" />
            <mxPoint x="467.76999999999987" y="514" as="targetPoint" />
          </mxGeometry>
        </mxCell>
        <mxCell id="uoPQr9zp4obJrhjYn7je-209" style="edgeStyle=orthogonalEdgeStyle;rounded=0;orthogonalLoop=1;jettySize=auto;html=1;exitX=0.5;exitY=1;exitDx=0;exitDy=0;entryX=0.874;entryY=0;entryDx=0;entryDy=0;entryPerimeter=0;endArrow=none;endFill=0;" edge="1" source="uoPQr9zp4obJrhjYn7je-210" parent="1">
          <mxGeometry relative="1" as="geometry">
            <mxPoint x="580" y="360" as="targetPoint" />
          </mxGeometry>
        </mxCell>
        <mxCell id="uoPQr9zp4obJrhjYn7je-210" value="" style="ellipse;whiteSpace=wrap;html=1;aspect=fixed;fillColor=#000000;" vertex="1" parent="1">
          <mxGeometry x="575" y="330" width="10" height="10" as="geometry" />
        </mxCell>
        <mxCell id="uoPQr9zp4obJrhjYn7je-211" value="id_espe" style="text;html=1;align=center;verticalAlign=middle;resizable=0;points=[];autosize=1;strokeColor=none;fillColor=none;" vertex="1" parent="1">
          <mxGeometry x="580" y="310" width="70" height="30" as="geometry" />
        </mxCell>
        <mxCell id="uoPQr9zp4obJrhjYn7je-221" style="edgeStyle=orthogonalEdgeStyle;rounded=0;orthogonalLoop=1;jettySize=auto;html=1;exitX=0;exitY=0.5;exitDx=0;exitDy=0;entryX=1.006;entryY=0.125;entryDx=0;entryDy=0;entryPerimeter=0;endArrow=none;endFill=0;" edge="1" parent="1" source="uoPQr9zp4obJrhjYn7je-213" target="uoPQr9zp4obJrhjYn7je-6">
          <mxGeometry relative="1" as="geometry" />
        </mxCell>
        <mxCell id="uoPQr9zp4obJrhjYn7je-213" value="" style="ellipse;whiteSpace=wrap;html=1;aspect=fixed;" vertex="1" parent="1">
          <mxGeometry x="615" y="360" width="10" height="10" as="geometry" />
        </mxCell>
        <mxCell id="uoPQr9zp4obJrhjYn7je-214" value="nom_espe" style="text;html=1;align=center;verticalAlign=middle;resizable=0;points=[];autosize=1;strokeColor=none;fillColor=none;" vertex="1" parent="1">
          <mxGeometry x="620" y="350" width="80" height="30" as="geometry" />
        </mxCell>
        <mxCell id="uoPQr9zp4obJrhjYn7je-222" style="edgeStyle=orthogonalEdgeStyle;rounded=0;orthogonalLoop=1;jettySize=auto;html=1;exitX=0;exitY=0.5;exitDx=0;exitDy=0;entryX=1.006;entryY=0.125;entryDx=0;entryDy=0;entryPerimeter=0;endArrow=none;endFill=0;" edge="1" source="uoPQr9zp4obJrhjYn7je-223" parent="1">
          <mxGeometry relative="1" as="geometry">
            <mxPoint x="601" y="393" as="targetPoint" />
          </mxGeometry>
        </mxCell>
        <mxCell id="uoPQr9zp4obJrhjYn7je-223" value="" style="ellipse;whiteSpace=wrap;html=1;aspect=fixed;" vertex="1" parent="1">
          <mxGeometry x="615" y="385" width="10" height="10" as="geometry" />
        </mxCell>
        <mxCell id="uoPQr9zp4obJrhjYn7je-224" value="origen_geo" style="text;html=1;align=center;verticalAlign=middle;resizable=0;points=[];autosize=1;strokeColor=none;fillColor=none;" vertex="1" parent="1">
          <mxGeometry x="620" y="375" width="80" height="30" as="geometry" />
        </mxCell>
        <mxCell id="uoPQr9zp4obJrhjYn7je-225" style="edgeStyle=orthogonalEdgeStyle;rounded=0;orthogonalLoop=1;jettySize=auto;html=1;exitX=0;exitY=0.5;exitDx=0;exitDy=0;entryX=1.006;entryY=0.125;entryDx=0;entryDy=0;entryPerimeter=0;endArrow=none;endFill=0;" edge="1" source="uoPQr9zp4obJrhjYn7je-226" parent="1">
          <mxGeometry relative="1" as="geometry">
            <mxPoint x="600" y="413" as="targetPoint" />
          </mxGeometry>
        </mxCell>
        <mxCell id="uoPQr9zp4obJrhjYn7je-226" value="" style="ellipse;whiteSpace=wrap;html=1;aspect=fixed;" vertex="1" parent="1">
          <mxGeometry x="614" y="405" width="10" height="10" as="geometry" />
        </mxCell>
        <mxCell id="uoPQr9zp4obJrhjYn7je-227" value="habitad_nat" style="text;html=1;align=center;verticalAlign=middle;resizable=0;points=[];autosize=1;strokeColor=none;fillColor=none;" vertex="1" parent="1">
          <mxGeometry x="614" y="395" width="90" height="30" as="geometry" />
        </mxCell>
        <mxCell id="uoPQr9zp4obJrhjYn7je-228" value="&lt;div align=&quot;left&quot;&gt;&lt;b&gt;MODELO RELACIONAL:&lt;/b&gt;&lt;br&gt;&lt;/div&gt;" style="text;html=1;align=left;verticalAlign=middle;resizable=0;points=[];autosize=1;strokeColor=none;fillColor=none;" vertex="1" parent="1">
          <mxGeometry x="20" y="10" width="160" height="30" as="geometry" />
        </mxCell>
      </root>
    </mxGraphModel>
  </diagram>
</mxfile>
